<svg width="52" height="71" viewBox="0 0 52 71" fill="none" xmlns="http://www.w3.org/2000/svg">
<path d="M15.635 34.813L28.6758 42.0619L13.0409 70.1892L10.1449 60.0443L3.94124e-05 62.9403L15.635 34.813Z" fill="#3FA8E1"/>
<path d="M35.2748 34.813L22.2339 42.0619L37.8689 70.1892L40.7648 60.0443L50.9097 62.9403L35.2748 34.813Z" fill="#3FA8E1"/>
<circle cx="26.3297" cy="26.3294" r="25.452" fill="#D33A14"/>
<circle cx="25.452" cy="25.452" r="25.452" fill="#FF835D"/>
<mask id="mask0_715_1269" style="mask-type:alpha" maskUnits="userSpaceOnUse" x="0" y="0" width="51" height="51">
<circle cx="25.452" cy="25.452" r="25.452" fill="#FFCC22"/>
</mask>
<g mask="url(#mask0_715_1269)">
<rect x="38.7437" width="5.69159" height="53.6136" transform="rotate(48.1139 38.7437 0)" fill="#FFAD87"/>
<rect x="49.2756" y="12.8721" width="1.14046" height="53.6136" transform="rotate(48.1139 49.2756 12.8721)" fill="#FFAD87"/>
<rect x="48.7882" y="8.40576" width="2.3617" height="57.6745" transform="rotate(48.1139 48.7882 8.40576)" fill="#FFAD87"/>
</g>
<circle cx="25.452" cy="25.452" r="19.601" fill="#F25E40"/>
<path d="M26.9148 16.4455C21.1808 15.8604 18.9671 19.5173 18.5771 21.4188L22.0877 22.2964C22.234 21.1262 23.474 19.6634 25.0132 19.6634C27.3536 19.6634 28.8164 21.1262 28.2313 22.8815C27.7632 24.2858 24.6719 24.4905 23.4042 24.3443V27.8549C27.2659 27.5038 28.5238 28.7326 28.6701 30.049C28.8164 31.0242 27.7047 32.6527 25.0132 32.5357C22.3217 32.4187 22.234 30.483 21.9414 29.4639L18.1382 30.3416C19.0159 36.1926 24.4769 36.5827 27.3536 36.1926C28.9139 35.9976 32.4558 34.712 32.9121 31.3655C33.3509 28.1475 31.3031 25.9533 29.694 25.807C31.4494 25.573 32.132 23.8567 32.327 23.0278C32.7658 21.1628 31.7419 16.938 26.9148 16.4455Z" fill="#FF835D"/>
<path d="M25.4517 5.85107C29.7551 5.85107 33.7342 7.23914 36.9673 9.59033C34.2298 8.13756 31.1075 7.31397 27.7925 7.31396C16.9672 7.31396 8.19189 16.0892 8.19189 26.9146C8.19192 33.4354 11.3765 39.2116 16.2749 42.7749C10.0744 39.4832 5.85107 32.961 5.85107 25.4517C5.85128 14.6266 14.6266 5.85128 25.4517 5.85107Z" fill="#D01309"/>
<path d="M32.8209 29.1602C32.9762 29.8206 33.0213 30.5609 32.9117 31.3652C32.4554 34.7113 28.9146 35.9971 27.3541 36.1924C26.6526 36.2875 25.7971 36.3351 24.8922 36.2695L32.8209 29.1602ZM31.6724 26.9268C31.9482 27.2312 32.1975 27.5923 32.4029 28.0029L23.4205 36.0586C22.9388 35.9515 22.4588 35.804 21.9947 35.6064L25.4146 32.5391C27.8153 32.4863 28.8093 30.974 28.6705 30.0488C28.6569 29.9265 28.6293 29.8061 28.5953 29.6865L31.6724 26.9268ZM21.941 29.4639C22.1149 30.0697 22.2171 30.9997 22.8365 31.6787L19.9683 34.251C19.0766 33.3527 18.4009 32.093 18.1382 30.3418L21.941 29.4639ZM28.5445 16.791C31.9741 17.9529 32.7109 21.3954 32.3267 23.0283C32.313 23.0867 32.2928 23.1484 32.274 23.2148L26.8443 28.084C26.0401 27.8238 24.9235 27.7173 23.4039 27.8555V24.3447C24.6715 24.491 27.7627 24.2859 28.231 22.8818C28.7893 21.2071 27.4835 19.7996 25.3297 19.6738L28.5445 16.791Z" fill="#FFAD87"/>
</svg>
