<svg width="52" height="71" viewBox="0 0 52 71" fill="none" xmlns="http://www.w3.org/2000/svg">
<path d="M15.635 34.8135L28.6758 42.0624L13.0409 70.1897L10.1449 60.0448L3.94124e-05 62.9408L15.635 34.8135Z" fill="#3FA8E1"/>
<path d="M35.2748 34.8135L22.2339 42.0624L37.8689 70.1897L40.7648 60.0448L50.9097 62.9408L35.2748 34.8135Z" fill="#3FA8E1"/>
<circle cx="26.3297" cy="26.3294" r="25.452" fill="#EB861A"/>
<circle cx="25.452" cy="25.452" r="25.452" fill="#FFCC22"/>
<mask id="mask0_715_1267" style="mask-type:alpha" maskUnits="userSpaceOnUse" x="0" y="0" width="51" height="51">
<circle cx="25.452" cy="25.452" r="25.452" fill="#FFCC22"/>
</mask>
<g mask="url(#mask0_715_1267)">
<rect x="38.7437" width="5.69159" height="53.6136" transform="rotate(48.1139 38.7437 0)" fill="#FFE92F"/>
<rect x="49.2755" y="12.8721" width="1.14046" height="53.6136" transform="rotate(48.1139 49.2755 12.8721)" fill="#FFE92F"/>
<rect x="48.7882" y="8.40576" width="2.3617" height="57.6745" transform="rotate(48.1139 48.7882 8.40576)" fill="#FFE92F"/>
</g>
<circle cx="25.452" cy="25.452" r="19.601" fill="#FFB41F"/>
<path d="M25.4517 5.85107C29.7564 5.85107 33.7366 7.23984 36.9702 9.59229C34.232 8.13851 31.1087 7.31398 27.7925 7.31396C16.9672 7.31396 8.19198 16.0893 8.19189 26.9146C8.19189 33.4354 11.3765 39.2116 16.2749 42.7749C10.0744 39.4832 5.85107 32.961 5.85107 25.4517C5.85128 14.6266 14.6266 5.85128 25.4517 5.85107Z" fill="#EB861A"/>
<path d="M25.0132 21.3563L22.5265 23.5504L21.9414 23.2579L20.1861 20.732L25.0132 16.3829L28.6701 16.0903L29.2552 16.3829V36.4227H25.0132L24.4281 35.8376L25.0132 21.3563Z" fill="#EB861A"/>
<path d="M21.9414 23.2579L19.601 20.4394L24.4281 16.0903H28.6701V35.8376H24.4281V21.0637L21.9414 23.2579Z" fill="#FFCC22"/>
<path d="M28.6703 32.7231L25.1986 35.8374H24.4281V34.7964L28.6703 30.9917V32.7231ZM28.6703 35.8374H26.9056L28.6703 34.2544V35.8374ZM28.6703 27.8198L24.4281 31.6235V21.855L28.6703 18.0513V27.8198Z" fill="#FFE92F"/>
</svg>
