<svg width="20" height="20" viewBox="0 0 20 20" fill="none" xmlns="http://www.w3.org/2000/svg">
<path d="M18.5596 1.43603C18.3716 1.25075 18.1385 1.11779 17.8833 1.05033C17.6281 0.982865 17.3597 0.983232 17.1047 1.05139C15.275 1.65401 13.6118 2.67677 12.2483 4.03779L5.14534 11.142C4.11976 10.5892 3.01241 10.2039 1.86522 10.0008C1.67062 9.97687 1.47437 10.0301 1.31856 10.1492C1.16275 10.2683 1.05979 10.4437 1.03174 10.6378C1.0037 10.8319 1.05281 11.0293 1.16854 11.1876C1.28427 11.3459 1.45742 11.4526 1.65084 11.4847C3.1101 11.7583 4.48458 12.3714 5.66329 13.2744L2.88314 16.0561L2.28873 15.4615C2.21958 15.3899 2.13687 15.3328 2.04542 15.2935C1.95397 15.2542 1.85561 15.2335 1.75608 15.2327C1.65656 15.2318 1.55785 15.2508 1.46573 15.2885C1.37361 15.3262 1.28992 15.3818 1.21954 15.4522C1.14916 15.5226 1.09351 15.6064 1.05582 15.6985C1.01813 15.7907 0.999163 15.8894 1.00003 15.9889C1.00089 16.0885 1.02157 16.1869 1.06086 16.2784C1.10014 16.3698 1.15724 16.4526 1.22883 16.5217L3.47754 18.7711C3.54669 18.8427 3.6294 18.8998 3.72085 18.9391C3.8123 18.9784 3.91066 18.9991 4.01019 19C4.10971 19.0008 4.20842 18.9819 4.30054 18.9442C4.39266 18.9065 4.47635 18.8508 4.54673 18.7804C4.61711 18.71 4.67276 18.6263 4.71045 18.5341C4.74814 18.442 4.76711 18.3433 4.76624 18.2437C4.76538 18.1441 4.7447 18.0458 4.70542 17.9543C4.66613 17.8628 4.60903 17.7801 4.53744 17.7109L3.94303 17.1163L6.72318 14.3346C7.62658 15.5135 8.23956 16.8888 8.5124 18.349C8.53835 18.5273 8.62762 18.6903 8.7639 18.8082C8.90017 18.926 9.07433 18.9909 9.25448 18.9908C9.29062 18.991 9.32672 18.9882 9.36242 18.9825C9.5588 18.9541 9.73592 18.849 9.85493 18.6902C9.97394 18.5313 10.0251 18.3318 9.9973 18.1353C9.7951 16.9875 9.40991 15.8797 8.85646 14.8542L15.9586 7.74923C17.3347 6.36599 18.3646 4.67707 18.9644 2.82014C19.0191 2.57401 19.0107 2.31804 18.9399 2.07604C18.8691 1.83405 18.7383 1.61388 18.5596 1.43603ZM14.898 6.68829L8.02668 13.5623C7.79924 13.2626 7.55182 12.9785 7.28611 12.7121C7.01968 12.4467 6.73597 12.1992 6.43685 11.9713L13.3082 5.09799C14.4843 3.92078 15.9169 3.03183 17.4937 2.50073C16.9614 4.07744 16.0732 5.51033 14.898 6.68829Z" fill="currentColor"/>
</svg>
