<svg width="24" height="24" viewBox="0 0 24 24" fill="none" xmlns="http://www.w3.org/2000/svg">
<path d="M19.1514 2.25H4.84866L0.75 8.39794V9.55978L9.34786 22.5H14.6521L23.25 9.55978V8.39794L19.1514 2.25ZM18.3487 3.75L21.3209 8.20833H16.3003L14.8973 3.75H18.3487ZM10.6752 3.75H13.3248L14.7277 8.20833H9.27225L10.6752 3.75ZM5.65139 3.75H9.10275L7.69973 8.20833H2.67914L5.65139 3.75ZM10.1521 21L2.64961 9.70833H7.65553L10.3037 21H10.1521ZM11.8443 21L9.19627 9.70833H14.8037L12.1555 21H11.8443ZM13.8477 21H13.6961L16.3446 9.70833H21.3504L13.8477 21Z" fill="currentColor"/>
</svg>
