<svg width="27" height="24" viewBox="0 0 27 24" fill="none" xmlns="http://www.w3.org/2000/svg">
<path d="M1.03054 9.54272L11.0318 21.069C12.1324 22.3374 14.1009 22.3379 15.2022 21.07L25.2143 9.54289C25.8539 8.80656 26.0576 7.78746 25.7502 6.86186L24.0994 1.89106C23.7245 0.761991 22.6685 0 21.4788 0H4.76724C3.57753 0 2.52158 0.761989 2.14662 1.89106L0.495582 6.86273C0.188354 7.78786 0.391675 8.80644 1.03054 9.54272Z" fill="#A8CBFC"/>
<path d="M12.1317 0.648877C12.278 0.258574 12.6512 0 13.068 0H13.932C14.3488 0 14.722 0.258573 14.8683 0.648877L17.4933 7.64888C17.7385 8.30263 17.2552 9 16.557 9H10.443C9.74479 9 9.26151 8.30263 9.50667 7.64888L12.1317 0.648877Z" fill="#D4E6FF"/>
</svg>
