<svg width="20" height="20" viewBox="0 0 20 20" fill="none" xmlns="http://www.w3.org/2000/svg">
<path d="M9.99999 2.5C10.5555 4.72222 11.6667 6.52778 13.3333 7.91667C15 9.30556 15.8333 10.8333 15.8333 12.5C15.8333 14.0471 15.2187 15.5308 14.1248 16.6248C13.0308 17.7188 11.5471 18.3333 9.99999 18.3333C8.45289 18.3333 6.96916 17.7188 5.8752 16.6248C4.78124 15.5308 4.16666 14.0471 4.16666 12.5C4.16666 11.5985 4.45906 10.7212 4.99999 10C4.99999 10.5525 5.21948 11.0824 5.61018 11.4731C6.00088 11.8638 6.53079 12.0833 7.08332 12.0833C7.63586 12.0833 8.16576 11.8638 8.55646 11.4731C8.94716 11.0824 9.16666 10.5525 9.16666 10C9.16666 8.33333 7.91666 7.5 7.91666 5.83333C7.91666 4.72222 8.6111 3.61111 9.99999 2.5Z" stroke="#FB2C36" stroke-width="1.66667" stroke-linecap="round" stroke-linejoin="round"/>
</svg>
