<svg width="29" height="29" viewBox="0 0 29 29" fill="none" xmlns="http://www.w3.org/2000/svg">
<path fill-rule="evenodd" clip-rule="evenodd" d="M16.4342 5.00966C18.4565 3.72681 21.7225 2.51372 24.543 5.39003C31.2384 12.2179 19.7565 25.375 14.5 25.375C9.2436 25.375 -2.23842 12.2179 4.45698 5.39003C7.27745 2.51375 10.5435 3.72682 12.5658 5.00967C13.7085 5.73453 15.2915 5.73453 16.4342 5.00966ZM9.4115 8.09714C9.87937 7.91935 10.1145 7.39594 9.93672 6.92808C9.75893 6.46021 9.23552 6.22506 8.76765 6.40286C8.078 6.66493 7.41123 7.09102 6.78746 7.70946C5.9968 8.49337 5.47004 9.38353 5.17566 10.3382C5.02817 10.8164 5.29634 11.3237 5.77462 11.4712C6.2529 11.6187 6.76019 11.3505 6.90768 10.8723C7.11305 10.2063 7.48147 9.57372 8.06359 8.99657C8.52067 8.54339 8.97565 8.26277 9.4115 8.09714Z" fill="#FFA2A2"/>
</svg>
