<svg width="20" height="20" viewBox="0 0 20 20" fill="none" xmlns="http://www.w3.org/2000/svg">
<g clip-path="url(#clip0_49_2217)">
<path d="M8.33337 12.2167V13.5717C8.33023 13.8572 8.25378 14.1371 8.11136 14.3846C7.96894 14.6321 7.76532 14.8388 7.52004 14.985C6.99933 15.3707 6.57574 15.8725 6.28294 16.4506C5.99015 17.0286 5.83622 17.667 5.83337 18.315" stroke="currentColor" stroke-width="1.66667" stroke-linecap="round" stroke-linejoin="round"/>
<path d="M11.6666 12.2167V13.5717C11.6698 13.8572 11.7462 14.1371 11.8886 14.3846C12.0311 14.6321 12.2347 14.8388 12.48 14.985C13.0007 15.3707 13.4243 15.8725 13.7171 16.4506C14.0098 17.0286 14.1638 17.667 14.1666 18.315" stroke="currentColor" stroke-width="1.66667" stroke-linecap="round" stroke-linejoin="round"/>
<path d="M15 7.49998H16.25C16.8025 7.49998 17.3324 7.28049 17.7231 6.88979C18.1138 6.49908 18.3333 5.96918 18.3333 5.41665C18.3333 4.86411 18.1138 4.33421 17.7231 3.94351C17.3324 3.55281 16.8025 3.33331 16.25 3.33331H15" stroke="currentColor" stroke-width="1.66667" stroke-linecap="round" stroke-linejoin="round"/>
<path d="M3.33337 18.3333H16.6667" stroke="currentColor" stroke-width="1.66667" stroke-linecap="round" stroke-linejoin="round"/>
<path d="M5 7.50002C5 8.8261 5.52678 10.0979 6.46447 11.0356C7.40215 11.9732 8.67392 12.5 10 12.5C11.3261 12.5 12.5979 11.9732 13.5355 11.0356C14.4732 10.0979 15 8.8261 15 7.50002V2.50002C15 2.27901 14.9122 2.06704 14.7559 1.91076C14.5996 1.75448 14.3877 1.66669 14.1667 1.66669H5.83333C5.61232 1.66669 5.40036 1.75448 5.24408 1.91076C5.0878 2.06704 5 2.27901 5 2.50002V7.50002Z" stroke="currentColor" stroke-width="1.66667" stroke-linecap="round" stroke-linejoin="round"/>
<path d="M4.99996 7.49998H3.74996C3.19742 7.49998 2.66752 7.28049 2.27682 6.88979C1.88612 6.49908 1.66663 5.96918 1.66663 5.41665C1.66663 4.86411 1.88612 4.33421 2.27682 3.94351C2.66752 3.55281 3.19742 3.33331 3.74996 3.33331H4.99996" stroke="currentColor" stroke-width="1.66667" stroke-linecap="round" stroke-linejoin="round"/>
</g>
<defs>
<clipPath id="clip0_49_2217">
<rect width="20" height="20" fill="white"/>
</clipPath>
</defs>
</svg>
