<svg width="38" height="38" viewBox="0 0 38 38" fill="none" xmlns="http://www.w3.org/2000/svg">
<path d="M30.0833 17.4167H7.91667C6.16776 17.4167 4.75 18.8344 4.75 20.5833V31.6667C4.75 33.4156 6.16776 34.8333 7.91667 34.8333H30.0833C31.8322 34.8333 33.25 33.4156 33.25 31.6667V20.5833C33.25 18.8344 31.8322 17.4167 30.0833 17.4167Z" fill="#A0A3BD" stroke="#A0A3BD" stroke-width="2.66667" stroke-linecap="round" stroke-linejoin="round"/>
<path d="M11.0835 17.4167V11.0833C11.0835 8.98371 11.9176 6.97007 13.4022 5.48541C14.8869 4.00075 16.9005 3.16667 19.0002 3.16667C21.0998 3.16667 23.1134 4.00075 24.5981 5.48541C26.0828 6.97007 26.9168 8.98371 26.9168 11.0833V17.4167" stroke="#A0A3BD" stroke-width="2.66667" stroke-linecap="round" stroke-linejoin="round"/>
</svg>
