<svg width="20" height="24" viewBox="0 0 20 24" fill="none" xmlns="http://www.w3.org/2000/svg">
<path d="M20 10.485V19C19.9984 20.3256 19.4711 21.5964 18.5338 22.5338C17.5964 23.4711 16.3256 23.9984 15 24H5C3.67441 23.9984 2.40356 23.4711 1.46622 22.5338C0.528882 21.5964 0.00158786 20.3256 0 19V5C0.00158786 3.67441 0.528882 2.40356 1.46622 1.46622C2.40356 0.528882 3.67441 0.00158786 5 0L9.515 0C9.678 0 9.839 0.013 10 0.024V7C10 7.79565 10.3161 8.55871 10.8787 9.12132C11.4413 9.68393 12.2044 10 13 10H19.976C19.987 10.161 20 10.322 20 10.485ZM14.724 14.311C14.5412 14.1191 14.2897 14.0076 14.0247 14.0011C13.7598 13.9945 13.5031 14.0934 13.311 14.276L9.711 17.707C9.61481 17.8038 9.49983 17.8798 9.37314 17.9305C9.24646 17.9811 9.11075 18.0053 8.97436 18.0016C8.83797 17.9979 8.70379 17.9662 8.58008 17.9087C8.45636 17.8511 8.34574 17.7689 8.255 17.667L6.666 16.253C6.5679 16.1655 6.45354 16.0983 6.32944 16.055C6.20534 16.0117 6.07393 15.9933 5.94272 16.0009C5.67774 16.016 5.42963 16.1359 5.253 16.334C5.16554 16.4321 5.09826 16.5465 5.055 16.6706C5.01173 16.7947 4.99334 16.9261 5.00086 17.0573C5.01605 17.3223 5.13588 17.5704 5.334 17.747L6.878 19.121C7.43767 19.6808 8.19592 19.9967 8.9875 19.9999C9.77908 20.0031 10.5398 19.6933 11.104 19.138L14.689 15.724C14.8809 15.5412 14.9924 15.2897 14.9989 15.0247C15.0055 14.7598 14.9066 14.5031 14.724 14.311Z" fill="#A29AFF"/>
<path d="M12 0V6.54C12 6.80522 12.1054 7.05957 12.2929 7.24711C12.4804 7.43464 12.7348 7.54 13 7.54H19.54C19.1909 6.61489 18.6485 5.77488 17.949 5.076L14.465 1.59C13.7653 0.891312 12.9251 0.349335 12 0Z" fill="#4A3FB8"/>
<path d="M5.5 16.5C5.5 16.5 7.5 19 9 19C10.5 19 14 15 14 15" stroke="white" stroke-width="2.2" stroke-linecap="round" stroke-linejoin="round"/>
</svg>
