<svg width="52" height="71" viewBox="0 0 52 71" fill="none" xmlns="http://www.w3.org/2000/svg">
<path d="M15.6349 34.8135L28.6758 42.0624L13.0409 70.1897L10.1449 60.0448L8.8948e-06 62.9408L15.6349 34.8135Z" fill="#3FA8E1"/>
<path d="M35.2747 34.8135L22.2339 42.0624L37.8688 70.1897L40.7648 60.0448L50.9097 62.9408L35.2747 34.8135Z" fill="#3FA8E1"/>
<circle cx="26.3296" cy="26.3294" r="25.452" fill="#828A98"/>
<circle cx="25.452" cy="25.452" r="25.452" fill="#C2CED1"/>
<mask id="mask0_715_1268" style="mask-type:alpha" maskUnits="userSpaceOnUse" x="0" y="0" width="51" height="51">
<circle cx="25.452" cy="25.452" r="25.452" fill="#FFCC22"/>
</mask>
<g mask="url(#mask0_715_1268)">
<rect x="38.7437" width="5.69159" height="53.6136" transform="rotate(48.1139 38.7437 0)" fill="#E7EDEF"/>
<rect x="49.2755" y="12.8721" width="1.14046" height="53.6136" transform="rotate(48.1139 49.2755 12.8721)" fill="#E7EDEF"/>
<rect x="48.7881" y="8.40576" width="2.3617" height="57.6745" transform="rotate(48.1139 48.7881 8.40576)" fill="#E7EDEF"/>
</g>
<circle cx="25.452" cy="25.452" r="19.601" fill="#B5BAC5"/>
<path d="M25.4516 5.85107C29.7551 5.85107 33.7342 7.23914 36.9673 9.59033C34.2298 8.13757 31.1075 7.31397 27.7924 7.31396C16.9671 7.31396 8.19189 16.0893 8.19186 26.9146C8.19186 33.4354 11.3765 39.2116 16.2749 42.7749C10.0744 39.4832 5.85104 32.961 5.85104 25.4517C5.85125 14.6266 14.6266 5.85128 25.4516 5.85107Z" fill="#828A98"/>
<path d="M22.9649 25.0273L18.7231 23.9891L18.1377 23.1114C18.988 18.96 21.4062 17.8385 23.1111 17.1281C26.4755 16.1044 30.8638 16.6893 32.7653 20.2004C35.2211 24.7348 31.7414 27.9527 31.3026 28.3917C31.041 28.6535 27.2556 31.4635 25.3053 32.78L32.9116 32.1805L33.4967 32.78C33.4706 33.999 33.4967 36.7295 33.4967 36.7295C33.4967 36.7295 23.8686 36.827 19.0154 36.7295L18.4303 36.13L19.0154 32.78L26.768 26.4901C27.6958 25.785 29.2547 24.4419 28.6696 22.6868C28.5695 22.3866 28.2308 21.6629 27.2069 21.2241C23.55 20.2002 22.9649 25.0273 22.9649 25.0273Z" fill="#828A98"/>
<path d="M22.3802 24.1498C22.3802 24.1498 19.5522 23.5647 18.1382 23.1259C18.9574 18.6791 20.7712 17.2745 22.5265 16.5431C25.8908 15.5194 30.2791 16.1043 32.1807 19.6155C34.6364 24.1498 31.1568 27.3678 30.7179 27.8068C30.4563 28.0685 26.671 30.8786 24.7206 32.195H32.9121C32.886 33.414 32.9121 35.9839 32.9121 36.1445C32.4968 36.1445 23.284 36.242 18.4308 36.1445V32.195L26.1834 25.9052C27.1111 25.2001 28.6701 23.857 28.085 22.1019C27.9849 21.8016 27.6461 21.078 26.6222 20.6391C22.9653 19.6152 22.3802 24.1498 22.3802 24.1498Z" fill="#C2CED1"/>
<mask id="mask1_715_1268" style="mask-type:alpha" maskUnits="userSpaceOnUse" x="18" y="16" width="16" height="21">
<path d="M22.3802 24.1498C22.3802 24.1498 19.5522 23.5647 18.1382 23.1259C18.9574 18.6791 20.7712 17.2745 22.5265 16.5431C25.8908 15.5194 30.2791 16.1043 32.1807 19.6155C34.6364 24.1498 31.1568 27.3678 30.7179 27.8068C30.4563 28.0685 26.671 30.8786 24.7206 32.195H32.9121C32.8874 33.3477 32.9094 35.9955 32.9119 36.1444C32.912 36.1444 32.9121 36.1445 32.9121 36.1445C32.9121 36.1532 32.912 36.153 32.9119 36.1444C32.859 36.1307 23.2706 36.2418 18.4308 36.1445V32.195L26.1834 25.9052C27.1111 25.2001 28.6701 23.857 28.085 22.1019C27.9849 21.8016 27.6461 21.078 26.6222 20.6391C22.9653 19.6152 22.3802 24.1498 22.3802 24.1498Z" fill="#E7EDEF"/>
</mask>
<g mask="url(#mask1_715_1268)">
<rect x="38.7437" width="5.69159" height="53.6136" transform="rotate(48.1139 38.7437 0)" fill="#E7EDEF"/>
<rect x="49.2756" y="12.8721" width="1.14046" height="53.6136" transform="rotate(48.1139 49.2756 12.8721)" fill="#E7EDEF"/>
<rect x="48.7882" y="8.40576" width="2.3617" height="57.6745" transform="rotate(48.1139 48.7882 8.40576)" fill="#E7EDEF"/>
</g>
</svg>
