<svg width="32" height="34" viewBox="0 0 32 34" fill="none" xmlns="http://www.w3.org/2000/svg">
<path d="M2 5.3341C1.99982 4.74763 2.16212 4.17149 2.47051 3.66386C2.7789 3.15623 3.22247 2.73509 3.75643 2.44295C4.29038 2.15082 4.89582 1.99803 5.51161 2.00002C6.1274 2.00201 6.73173 2.15871 7.26359 2.45429L28.2567 14.1169C28.7865 14.4096 29.2264 14.8297 29.5323 15.3351C29.8382 15.8405 29.9995 16.4135 30 16.9969C30.0005 17.5803 29.8403 18.1535 29.5353 18.6594C29.2303 19.1653 28.7912 19.5862 28.262 19.8798L7.26359 31.5457C6.73173 31.8413 6.1274 31.998 5.51161 32C4.89582 32.002 4.29038 31.8492 3.75643 31.557C3.22247 31.2649 2.7789 30.8438 2.47051 30.3361C2.16212 29.8285 1.99982 29.2524 2 28.6659V5.3341Z" fill="#FEFEFE" stroke="#FEFEFE" stroke-width="4" stroke-linecap="round" stroke-linejoin="round"/>
</svg>
