<svg width="32" height="32" viewBox="0 0 32 32" fill="none" xmlns="http://www.w3.org/2000/svg">
<path d="M15.3667 3.06018C15.4251 2.94213 15.5154 2.84276 15.6273 2.77328C15.7392 2.70381 15.8683 2.66699 16 2.66699C16.1318 2.66699 16.2609 2.70381 16.3728 2.77328C16.4847 2.84276 16.5749 2.94213 16.6334 3.06018L19.7134 9.29885C19.9163 9.70947 20.2158 10.0647 20.5862 10.3341C20.9566 10.6035 21.3869 10.779 21.84 10.8455L28.728 11.8535C28.8586 11.8724 28.9812 11.9275 29.082 12.0124C29.1829 12.0974 29.2579 12.2089 29.2987 12.3343C29.3395 12.4597 29.3444 12.5941 29.3128 12.7221C29.2812 12.8501 29.2145 12.9668 29.12 13.0589L24.1387 17.9095C23.8102 18.2297 23.5644 18.6248 23.4225 19.061C23.2806 19.4972 23.2468 19.9614 23.324 20.4135L24.5 27.2669C24.5231 27.3973 24.509 27.5316 24.4594 27.6544C24.4098 27.7773 24.3266 27.8837 24.2194 27.9615C24.1122 28.0394 23.9853 28.0855 23.8532 28.0947C23.721 28.1039 23.589 28.0758 23.472 28.0135L17.3147 24.7762C16.909 24.5632 16.4576 24.4519 15.9994 24.4519C15.5411 24.4519 15.0897 24.5632 14.684 24.7762L8.52804 28.0135C8.41115 28.0754 8.27924 28.1032 8.14731 28.0939C8.01538 28.0845 7.88873 28.0383 7.78177 27.9605C7.6748 27.8827 7.59182 27.7764 7.54225 27.6538C7.49268 27.5312 7.47852 27.3971 7.50137 27.2669L8.67604 20.4149C8.75363 19.9625 8.72002 19.498 8.57809 19.0616C8.43616 18.6251 8.19018 18.2297 7.86137 17.9095L2.88004 13.0602C2.78483 12.9682 2.71736 12.8514 2.68532 12.7229C2.65328 12.5945 2.65796 12.4597 2.69881 12.3338C2.73967 12.2079 2.81506 12.096 2.91641 12.0108C3.01775 11.9257 3.14098 11.8707 3.27204 11.8522L10.1587 10.8455C10.6124 10.7795 11.0432 10.6043 11.4142 10.3348C11.7851 10.0654 12.085 9.70988 12.288 9.29885L15.3667 3.06018Z" stroke="currentColor" stroke-width="2.66667" stroke-linecap="round" stroke-linejoin="round"/>
</svg>
