<svg width="1em" height="1em" viewBox="0 0 137 131" fill="none" xmlns="http://www.w3.org/2000/svg">
<path d="M54.2191 7.94736C60.3909 -2.64892 75.6989 -2.6489 81.8707 7.94738L92.4602 26.1284C94.7211 30.01 98.5095 32.7625 102.9 33.7132L123.463 38.1662C135.448 40.7614 140.179 55.3202 132.008 64.4644L117.989 80.1538C114.996 83.5035 113.549 87.9571 114.002 92.4262L116.121 113.359C117.356 125.56 104.972 134.557 93.7505 129.613L74.4969 121.128C70.3863 119.317 65.7035 119.317 61.5929 121.128L42.3393 129.613C31.1179 134.557 18.7334 125.56 19.9687 113.359L22.0882 92.4262C22.5407 87.957 21.0936 83.5035 18.1006 80.1538L4.08174 64.4643C-4.08873 55.3202 0.641726 40.7614 12.6266 38.1661L33.1901 33.7132C37.5804 32.7625 41.3688 30.01 43.6296 26.1284L54.2191 7.94736Z" fill="currentColor"/>
</svg>
