<svg width="12" height="15" viewBox="0 0 12 15" fill="none" xmlns="http://www.w3.org/2000/svg">
<path d="M0.666687 14.0001V2.00008C0.666687 1.89658 0.690784 1.79451 0.737069 1.70194C0.783354 1.60937 0.850556 1.52885 0.933354 1.46675C1.62574 0.94746 2.46787 0.666748 3.33335 0.666748C5.33335 0.666748 6.66669 2.00008 8.22202 2.00008C9.11091 2.00008 9.79246 1.8223 10.2667 1.46675C10.3657 1.39246 10.4835 1.34723 10.6068 1.33611C10.7301 1.32499 10.8541 1.34843 10.9648 1.4038C11.0756 1.45917 11.1687 1.54428 11.2338 1.64959C11.2989 1.75491 11.3334 1.87627 11.3334 2.00008V8.66675C11.3334 8.77024 11.3093 8.87232 11.263 8.96489C11.2167 9.05746 11.1495 9.13798 11.0667 9.20008C10.3743 9.71937 9.53217 10.0001 8.66669 10.0001C6.66669 10.0001 5.33335 8.66675 3.33335 8.66675C2.34943 8.66677 1.40004 9.02944 0.666687 9.68541" stroke="currentColor" stroke-width="1.33333" stroke-linecap="round" stroke-linejoin="round"/>
</svg>
