<svg width="current" height="current" viewBox="0 0 27 27" fill="none" xmlns="http://www.w3.org/2000/svg">
<path d="M23.1001 17.6001H18.7C18.0925 17.6001 17.6 18.0926 17.6 18.7001V23.1001C17.6 23.7076 18.0925 24.2001 18.7 24.2001H23.1001C23.7076 24.2001 24.2001 23.7076 24.2001 23.1001V18.7001C24.2001 18.0926 23.7076 17.6001 23.1001 17.6001Z" stroke="currentColor" stroke-width="2.20001" stroke-linecap="round" stroke-linejoin="round"/>
<path d="M7.70003 17.6001H3.30001C2.6925 17.6001 2.20001 18.0926 2.20001 18.7001V23.1001C2.20001 23.7076 2.6925 24.2001 3.30001 24.2001H7.70003C8.30754 24.2001 8.80003 23.7076 8.80003 23.1001V18.7001C8.80003 18.0926 8.30754 17.6001 7.70003 17.6001Z" stroke="currentColor" stroke-width="2.20001" stroke-linecap="round" stroke-linejoin="round"/>
<path d="M15.4 2.19995H11C10.3925 2.19995 9.90002 2.69244 9.90002 3.29995V7.69997C9.90002 8.30748 10.3925 8.79997 11 8.79997H15.4C16.0076 8.79997 16.5 8.30748 16.5 7.69997V3.29995C16.5 2.69244 16.0076 2.19995 15.4 2.19995Z" stroke="currentColor" stroke-width="2.20001" stroke-linecap="round" stroke-linejoin="round"/>
<path d="M5.5 17.6V14.3C5.5 14.0082 5.61589 13.7284 5.82218 13.5221C6.02847 13.3158 6.30826 13.2 6.6 13.2H19.8C20.0918 13.2 20.3716 13.3158 20.5779 13.5221C20.7841 13.7284 20.9 14.0082 20.9 14.3V17.6" stroke="currentColor" stroke-width="2.20001" stroke-linecap="round" stroke-linejoin="round"/>
<path d="M13.2 13.2001V8.80005" stroke="currentColor" stroke-width="2.20001" stroke-linecap="round" stroke-linejoin="round"/>
</svg>
