<svg width="current" height="current" viewBox="0 0 27 27" fill="none" xmlns="http://www.w3.org/2000/svg">
<path d="M13.2 22V24.2" stroke="currentColor" stroke-width="2.20001" stroke-linecap="round" stroke-linejoin="round"/>
<path d="M13.2 2.19995V4.39996" stroke="currentColor" stroke-width="2.20001" stroke-linecap="round" stroke-linejoin="round"/>
<path d="M18.7001 22V24.2" stroke="currentColor" stroke-width="2.20001" stroke-linecap="round" stroke-linejoin="round"/>
<path d="M18.7001 2.19995V4.39996" stroke="currentColor" stroke-width="2.20001" stroke-linecap="round" stroke-linejoin="round"/>
<path d="M2.20001 13.2H4.40002" stroke="currentColor" stroke-width="2.20001" stroke-linecap="round" stroke-linejoin="round"/>
<path d="M2.20001 18.7H4.40002" stroke="currentColor" stroke-width="2.20001" stroke-linecap="round" stroke-linejoin="round"/>
<path d="M2.20001 7.69995H4.40002" stroke="currentColor" stroke-width="2.20001" stroke-linecap="round" stroke-linejoin="round"/>
<path d="M22.0001 13.2H24.2001" stroke="currentColor" stroke-width="2.20001" stroke-linecap="round" stroke-linejoin="round"/>
<path d="M22.0001 18.7H24.2001" stroke="currentColor" stroke-width="2.20001" stroke-linecap="round" stroke-linejoin="round"/>
<path d="M22.0001 7.69995H24.2001" stroke="currentColor" stroke-width="2.20001" stroke-linecap="round" stroke-linejoin="round"/>
<path d="M7.70001 22V24.2" stroke="currentColor" stroke-width="2.20001" stroke-linecap="round" stroke-linejoin="round"/>
<path d="M7.70001 2.19995V4.39996" stroke="currentColor" stroke-width="2.20001" stroke-linecap="round" stroke-linejoin="round"/>
<path d="M19.8001 4.3999H6.60003C5.385 4.3999 4.40002 5.38488 4.40002 6.59991V19.7999C4.40002 21.015 5.385 21.9999 6.60003 21.9999H19.8001C21.0151 21.9999 22.0001 21.015 22.0001 19.7999V6.59991C22.0001 5.38488 21.0151 4.3999 19.8001 4.3999Z" stroke="currentColor" stroke-width="2.20001" stroke-linecap="round" stroke-linejoin="round"/>
<path d="M16.5001 8.80005H9.90005C9.29254 8.80005 8.80005 9.29254 8.80005 9.90005V16.5001C8.80005 17.1076 9.29254 17.6001 9.90005 17.6001H16.5001C17.1076 17.6001 17.6001 17.1076 17.6001 16.5001V9.90005C17.6001 9.29254 17.1076 8.80005 16.5001 8.80005Z" stroke="currentColor" stroke-width="2.20001" stroke-linecap="round" stroke-linejoin="round"/>
</svg>
