<svg width="20" height="20" viewBox="0 0 20 20" fill="none" xmlns="http://www.w3.org/2000/svg">
<g clip-path="url(#clip0_565_23)">
<path d="M10 15V4.16663" stroke="currentColor" stroke-width="1.66667" stroke-linecap="round" stroke-linejoin="round"/>
<path d="M12.5 10.8333C11.779 10.6226 11.1457 10.1839 10.695 9.58292C10.2443 8.98198 10.0005 8.25117 10 7.5C9.99955 8.25117 9.7557 8.98198 9.305 9.58292C8.8543 10.1839 8.221 10.6226 7.5 10.8333" stroke="currentColor" stroke-width="1.66667" stroke-linecap="round" stroke-linejoin="round"/>
<path d="M14.665 5.41661C14.8568 5.08452 14.9695 4.71277 14.9946 4.33011C15.0197 3.94745 14.9565 3.56415 14.8097 3.20986C14.663 2.85557 14.4367 2.53978 14.1484 2.28693C13.8601 2.03408 13.5175 1.85094 13.1471 1.75169C12.7766 1.65244 12.3884 1.63973 12.0123 1.71454C11.6361 1.78936 11.2823 1.9497 10.9781 2.18315C10.6738 2.41661 10.4274 2.71692 10.2578 3.06085C10.0882 3.40479 9.99998 3.78313 10 4.16661C10 3.78313 9.91181 3.40479 9.74222 3.06085C9.57262 2.71692 9.32617 2.41661 9.02194 2.18315C8.71771 1.9497 8.36386 1.78936 7.98775 1.71454C7.61164 1.63973 7.22336 1.65244 6.85294 1.75169C6.48253 1.85094 6.13992 2.03408 5.85161 2.28693C5.5633 2.53978 5.33702 2.85557 5.19028 3.20986C5.04353 3.56415 4.98026 3.94745 5.00536 4.33011C5.03046 4.71277 5.14324 5.08452 5.335 5.41661" stroke="currentColor" stroke-width="1.66667" stroke-linecap="round" stroke-linejoin="round"/>
<path d="M14.9971 4.27087C15.4869 4.39682 15.9417 4.63258 16.3269 4.9603C16.7121 5.28802 17.0177 5.6991 17.2205 6.16241C17.4234 6.62573 17.5181 7.12912 17.4976 7.63447C17.4771 8.13982 17.3418 8.63387 17.1021 9.07921" stroke="currentColor" stroke-width="1.66667" stroke-linecap="round" stroke-linejoin="round"/>
<path d="M15 15C15.7338 15 16.447 14.7579 17.0291 14.3112C17.6112 13.8645 18.0297 13.2382 18.2196 12.5294C18.4095 11.8207 18.3603 11.0691 18.0795 10.3912C17.7987 9.71326 17.3021 9.14694 16.6667 8.78003" stroke="currentColor" stroke-width="1.66667" stroke-linecap="round" stroke-linejoin="round"/>
<path d="M16.6388 14.5691C16.6972 15.021 16.6624 15.48 16.5364 15.9179C16.4105 16.3557 16.1961 16.7631 15.9065 17.1149C15.6169 17.4667 15.2583 17.7553 14.8528 17.9631C14.4473 18.1708 14.0035 18.2932 13.5489 18.3227C13.0942 18.3522 12.6383 18.2882 12.2094 18.1346C11.7804 17.981 11.3875 17.7411 11.0549 17.4297C10.7223 17.1183 10.457 16.7421 10.2755 16.3241C10.094 15.9062 10.0002 15.4555 9.99967 14.9999C9.99919 15.4555 9.9053 15.9062 9.72381 16.3241C9.54232 16.7421 9.27708 17.1183 8.94447 17.4297C8.61187 17.7411 8.21895 17.981 7.79 18.1346C7.36104 18.2882 6.90515 18.3522 6.45049 18.3227C5.99582 18.2932 5.55203 18.1708 5.14652 17.9631C4.74101 17.7553 4.3824 17.4667 4.09283 17.1149C3.80325 16.7631 3.58887 16.3557 3.46291 15.9179C3.33696 15.48 3.3021 15.021 3.36051 14.5691" stroke="currentColor" stroke-width="1.66667" stroke-linecap="round" stroke-linejoin="round"/>
<path d="M5.00018 15C4.26643 15 3.55319 14.7579 2.97107 14.3112C2.38895 13.8645 1.97049 13.2382 1.78058 12.5294C1.59067 11.8207 1.63992 11.0691 1.92069 10.3912C2.20147 9.71326 2.69808 9.14694 3.33351 8.78003" stroke="currentColor" stroke-width="1.66667" stroke-linecap="round" stroke-linejoin="round"/>
<path d="M5.00228 4.27087C4.51245 4.39682 4.0577 4.63258 3.67247 4.9603C3.28725 5.28802 2.98164 5.6991 2.77882 6.16241C2.57599 6.62573 2.48125 7.12912 2.50177 7.63447C2.52229 8.13982 2.65754 8.63387 2.89728 9.07921" stroke="currentColor" stroke-width="1.66667" stroke-linecap="round" stroke-linejoin="round"/>
</g>
<defs>
<clipPath id="clip0_565_23">
<rect width="20" height="20" fill="currentColor"/>
</clipPath>
</defs>
</svg>
