<svg width="20" height="20" viewBox="0 0 20 20" fill="none" xmlns="http://www.w3.org/2000/svg">
<path d="M3.33325 11.6666C3.17555 11.6671 3.02094 11.6229 2.88737 11.5391C2.75381 11.4552 2.64677 11.3352 2.5787 11.193C2.51063 11.0507 2.48432 10.8921 2.50283 10.7355C2.52133 10.5789 2.5839 10.4307 2.68325 10.3083L10.9332 1.80827C10.9951 1.73683 11.0795 1.68856 11.1724 1.67138C11.2653 1.65419 11.3613 1.66911 11.4447 1.71369C11.528 1.75826 11.5937 1.82985 11.631 1.91669C11.6683 2.00353 11.675 2.10047 11.6499 2.1916L10.0499 7.20827C10.0027 7.33454 9.98689 7.47037 10.0037 7.6041C10.0206 7.73784 10.0696 7.8655 10.1467 7.97612C10.2237 8.08674 10.3264 8.17703 10.446 8.23923C10.5656 8.30144 10.6984 8.3337 10.8332 8.33327H16.6666C16.8243 8.33273 16.9789 8.37695 17.1124 8.46078C17.246 8.54462 17.3531 8.66464 17.4211 8.80688C17.4892 8.94913 17.5155 9.10778 17.497 9.26438C17.4785 9.42099 17.4159 9.56913 17.3166 9.6916L9.06658 18.1916C9.00469 18.263 8.92036 18.3113 8.82743 18.3285C8.73449 18.3457 8.63848 18.3308 8.55514 18.2862C8.4718 18.2416 8.40609 18.17 8.3688 18.0832C8.33151 17.9963 8.32485 17.8994 8.34991 17.8083L9.94991 12.7916C9.99709 12.6653 10.0129 12.5295 9.99609 12.3958C9.97924 12.262 9.9302 12.1344 9.85317 12.0237C9.77614 11.9131 9.67343 11.8228 9.55385 11.7606C9.43426 11.6984 9.30137 11.6662 9.16658 11.6666H3.33325Z" stroke="currentColor" stroke-width="1.66667" stroke-linecap="round" stroke-linejoin="round"/>
</svg>
