<svg width="20" height="20" viewBox="0 0 20 20" fill="none" xmlns="http://www.w3.org/2000/svg">
<path fill-rule="evenodd" clip-rule="evenodd" d="M10.0001 1.66675C5.39758 1.66675 1.66675 5.40341 1.66675 10.0142C1.66675 13.7017 4.05425 16.8309 7.36591 17.9342C7.78258 18.0109 7.93425 17.7534 7.93425 17.5317C7.93425 17.3342 7.92758 16.8084 7.92341 16.1126C5.60508 16.6167 5.11591 14.9934 5.11591 14.9934C4.73758 14.0284 4.19091 13.7717 4.19091 13.7717C3.43425 13.2551 4.24841 13.2651 4.24841 13.2651C5.08425 13.3234 5.52425 14.1251 5.52425 14.1251C6.26758 15.4001 7.47508 15.0317 7.94925 14.8184C8.02591 14.2792 8.24091 13.9117 8.47925 13.7034C6.62925 13.4926 4.68341 12.7759 4.68341 9.57758C4.68341 8.66675 5.00841 7.92091 5.54091 7.33758C5.45508 7.12675 5.16925 6.27758 5.62258 5.12925C5.62258 5.12925 6.32258 4.90425 7.91425 5.98425C8.59405 5.79884 9.29545 5.70441 10.0001 5.70341C10.7084 5.70675 11.4209 5.79925 12.0867 5.98425C13.6776 4.90425 14.3759 5.12841 14.3759 5.12841C14.8309 6.27758 14.5442 7.12675 14.4592 7.33758C14.9926 7.92091 15.3159 8.66675 15.3159 9.57758C15.3159 12.7842 13.3667 13.4901 11.5109 13.6967C11.8101 13.9542 12.0759 14.4634 12.0759 15.2426C12.0759 16.3576 12.0659 17.2584 12.0659 17.5317C12.0659 17.7551 12.2159 18.0151 12.6392 17.9334C14.2987 17.3768 15.7412 16.3128 16.763 14.8918C17.7848 13.4707 18.3341 11.7645 18.3334 10.0142C18.3334 5.40341 14.6017 1.66675 10.0001 1.66675Z" fill="currentColor"/>
</svg>
