<svg width="20" height="20" viewBox="0 0 20 20" fill="none" xmlns="http://www.w3.org/2000/svg">
<g clip-path="url(#clip0_662_49)">
<path d="M10 1.66665C11.1054 1.67028 12.1992 1.8931 13.2179 2.32222C14.2366 2.75135 15.1602 3.37825 15.935 4.16665H13.3333C13.1123 4.16665 12.9004 4.25445 12.7441 4.41073C12.5878 4.56701 12.5 4.77897 12.5 4.99999C12.5 5.221 12.5878 5.43296 12.7441 5.58924C12.9004 5.74552 13.1123 5.83332 13.3333 5.83332H16.7858C17.1962 5.8331 17.5897 5.66999 17.8798 5.37982C18.17 5.08966 18.3331 4.69617 18.3333 4.28582V0.833319C18.3333 0.612305 18.2455 0.400344 18.0893 0.244064C17.933 0.0877832 17.721 -1.41704e-05 17.5 -1.41704e-05V-1.41704e-05C17.279 -1.41704e-05 17.067 0.0877832 16.9107 0.244064C16.7545 0.400344 16.6667 0.612305 16.6667 0.833319V2.56499C15.2893 1.32453 13.5938 0.491994 11.7701 0.16061C9.94635 -0.170774 8.06636 0.0120791 6.34066 0.688692C4.61496 1.36531 3.11169 2.50896 1.99918 3.99159C0.886679 5.47422 0.208874 7.23727 0.0416727 9.08332C0.0309088 9.19937 0.0444358 9.31639 0.0813918 9.42692C0.118348 9.53745 0.177922 9.63907 0.25632 9.72531C0.334717 9.81154 0.430218 9.88051 0.536738 9.9278C0.643257 9.97509 0.75846 9.99967 0.875006 9.99999V9.99999C1.07883 10.0026 1.27628 9.92902 1.42872 9.79369C1.58116 9.65836 1.6776 9.47101 1.69917 9.26832C1.88468 7.19394 2.83915 5.2639 4.37507 3.85735C5.91099 2.4508 7.91735 1.6694 10 1.66665Z" fill="currentColor"/>
<path d="M19.1262 10.0003C18.9223 9.99771 18.7249 10.0713 18.5724 10.2066C18.42 10.3419 18.3236 10.5293 18.302 10.732C18.1642 12.318 17.5744 13.8312 16.6025 15.0922C15.6306 16.3531 14.3175 17.3087 12.8188 17.8458C11.3201 18.3828 9.69882 18.4787 8.14728 18.1221C6.59575 17.7654 5.17907 16.9712 4.06533 15.8337H6.66699C6.88801 15.8337 7.09997 15.7459 7.25625 15.5896C7.41253 15.4333 7.50033 15.2213 7.50033 15.0003C7.50033 14.7793 7.41253 14.5673 7.25625 14.4111C7.09997 14.2548 6.88801 14.167 6.66699 14.167H3.21449C3.01124 14.1669 2.80996 14.2068 2.62216 14.2846C2.43436 14.3623 2.26372 14.4763 2.12 14.62C1.97628 14.7637 1.8623 14.9344 1.78457 15.1222C1.70684 15.31 1.66688 15.5112 1.66699 15.7145V19.167C1.66699 19.388 1.75479 19.6 1.91107 19.7563C2.06735 19.9125 2.27931 20.0003 2.50033 20.0003C2.72134 20.0003 2.9333 19.9125 3.08958 19.7563C3.24586 19.6 3.33366 19.388 3.33366 19.167V17.4353C4.71102 18.6758 6.4065 19.5083 8.23024 19.8397C10.054 20.1711 11.934 19.9882 13.6597 19.3116C15.3854 18.635 16.8886 17.4914 18.0011 16.0087C19.1137 14.5261 19.7915 12.763 19.9587 10.917C19.9694 10.8009 19.9559 10.6839 19.9189 10.5734C19.882 10.4628 19.8224 10.3612 19.744 10.275C19.6656 10.1888 19.5701 10.1198 19.4636 10.0725C19.3571 10.0252 19.2419 10.0006 19.1253 10.0003H19.1262Z" fill="currentColor"/>
</g>
<defs>
<clipPath id="clip0_662_49">
<rect width="20" height="20" fill="currentColor"/>
</clipPath>
</defs>
</svg>
